<svg preserveAspectRatio="none" width="100%" height="100%" overflow="visible" style="display: block;" viewBox="0 0 14 15" fill="none" xmlns="http://www.w3.org/2000/svg">
<path id="Vector" d="M1.75 13.2857H4.375V9C4.375 8.75714 4.459 8.55371 4.627 8.38971C4.795 8.22571 5.00267 8.14343 5.25 8.14286H8.75C8.99791 8.14286 9.20587 8.22514 9.37387 8.38971C9.54187 8.55428 9.62558 8.75771 9.625 9V13.2857H12.25V5.57143L7 1.71429L1.75 5.57143V13.2857ZM0 13.2857V5.57143C0 5.3 0.0621248 5.04286 0.186375 4.8C0.310625 4.55714 0.481833 4.35714 0.7 4.2L5.95 0.342857C6.25625 0.114286 6.60625 0 7 0C7.39375 0 7.74375 0.114286 8.05 0.342857L13.3 4.2C13.5187 4.35714 13.6902 4.55714 13.8145 4.8C13.9387 5.04286 14.0006 5.3 14 5.57143V13.2857C14 13.7571 13.8285 14.1609 13.4855 14.4969C13.1425 14.8329 12.7307 15.0006 12.25 15H8.75C8.50208 15 8.29442 14.9177 8.127 14.7531C7.95958 14.5886 7.87558 14.3851 7.875 14.1429V9.85714H6.125V14.1429C6.125 14.3857 6.041 14.5894 5.873 14.754C5.705 14.9186 5.49733 15.0006 5.25 15H1.75C1.26875 15 0.856916 14.8323 0.5145 14.4969C0.172083 14.1614 0.000583333 13.7577 0 13.2857Z" fill="var(--fill-0, white)"/>
</svg>
