<svg width="60" height="60" viewBox="0 0 60 60" fill="none" xmlns="http://www.w3.org/2000/svg">
<defs>
<radialGradient id="insta_grad" cx="0" cy="0" r="1" gradientUnits="userSpaceOnUse" gradientTransform="translate(16 52) rotate(-45) scale(55)">
<stop offset="0" stop-color="#FFD600"/>
<stop offset="0.5" stop-color="#FF0069"/>
<stop offset="1" stop-color="#7638FA"/>
</radialGradient>
</defs>
<circle cx="30" cy="30" r="30" fill="url(#insta_grad)"/>
<path d="M30 15C25.9 15 25.4 15 23.8 15.1C22.2 15.2 21.1 15.4 20.1 15.8C19.1 16.2 18.2 16.7 17.4 17.6C16.5 18.4 16 19.3 15.6 20.3C15.2 21.3 15 22.4 14.9 24C14.8 25.6 14.8 26.1 14.8 30.2C14.8 34.3 14.8 34.8 14.9 36.4C15 38 15.2 39.1 15.6 40.1C16 41.1 16.5 42 17.4 42.9C18.2 43.7 19.1 44.2 20.1 44.6C21.1 45 22.2 45.3 23.8 45.4C25.4 45.5 25.9 45.5 30 45.5C34.1 45.5 34.6 45.5 36.2 45.4C37.8 45.3 38.9 45 39.9 44.6C40.9 44.2 41.8 43.7 42.6 42.9C43.5 42 44 41.1 44.4 40.1C44.8 39.1 45 38 45.1 36.4C45.2 34.8 45.2 34.3 45.2 30.2C45.2 26.1 45.2 25.6 45.1 24C45 22.4 44.8 21.3 44.4 20.3C44 19.3 43.5 18.4 42.6 17.6C41.8 16.7 40.9 16.2 39.9 15.8C38.9 15.4 37.8 15.2 36.2 15.1C34.6 15 34.1 15 30 15ZM30 17.7C34 17.7 34.5 17.7 36.1 17.8C37.6 17.9 38.4 18.1 38.9 18.3C39.6 18.6 40.1 18.9 40.6 19.4C41.1 19.9 41.4 20.4 41.7 21C42 21.6 42.2 22.4 42.3 23.9C42.3 25.5 42.4 26 42.4 30C42.4 34 42.3 34.5 42.3 36.1C42.2 37.6 42 38.4 41.7 38.9C41.4 39.6 41.1 40.1 40.6 40.6C40.1 41.1 39.6 41.4 38.9 41.7C38.4 42 37.6 42.2 36.1 42.3C34.5 42.3 34 42.4 30 42.4C26 42.4 25.5 42.3 23.9 42.3C22.4 42.2 21.6 42 21 41.7C20.4 41.4 19.9 41.1 19.4 40.6C18.9 40.1 18.6 39.6 18.3 38.9C18.1 38.4 17.9 37.6 17.8 36.1C17.7 34.5 17.7 34 17.7 30C17.7 26 17.7 25.5 17.8 23.9C17.9 22.4 18.1 21.6 18.3 21C18.6 20.4 18.9 19.9 19.4 19.4C19.9 18.9 20.4 18.6 21 18.3C21.6 18.1 22.4 17.9 23.9 17.8C25.5 17.7 26 17.7 30 17.7ZM30 22.6A7.6 7.6 0 1030 37.8A7.6 7.6 0 1030 22.6ZM30 25.3A4.9 4.9 0 1130 35.1A4.9 4.9 0 1130 25.3ZM38.1 20.5A1.8 1.8 0 1138.1 24.1A1.8 1.8 0 1138.1 20.5Z" fill="white"/>
</svg>
