<svg width="21" height="21" viewBox="0 0 21 21" fill="none" xmlns="http://www.w3.org/2000/svg">
<path d="M9.625 1.75003C9.856 1.75003 10.0844 1.76053 10.3101 1.78153C10.0073 2.31482 9.80034 2.89704 9.6985 3.50178L9.625 3.50003C6.24137 3.50003 3.5 6.24053 3.5 9.62503C3.5 13.0095 6.24137 15.75 9.625 15.75C11.2179 15.752 12.7486 15.1316 13.8906 14.021L14.0219 13.8898C15.1319 12.7479 15.752 11.2175 15.75 9.62503L15.7474 9.55065C16.3522 9.44854 16.9344 9.24124 17.4676 8.93815C17.6479 10.9533 17.0422 12.9601 15.7771 14.539L19.5247 18.2867L18.2866 19.5239L14.5399 15.7772C13.1458 16.8947 11.4118 17.5026 9.625 17.5C5.278 17.5 1.75 13.972 1.75 9.62503C1.75 5.27803 5.278 1.75003 9.625 1.75003ZM14.4638 1.15415C14.4969 1.07224 14.5537 1.00208 14.627 0.952682C14.7003 0.903283 14.7866 0.876892 14.875 0.876892C14.9634 0.876892 15.0497 0.903283 15.123 0.952682C15.1963 1.00208 15.2531 1.07224 15.2862 1.15415L15.5085 1.68878C15.8801 2.59414 16.5847 3.32255 17.4773 3.72403L18.1055 4.00403C18.1861 4.04109 18.2543 4.10048 18.3022 4.17515C18.35 4.24983 18.3754 4.33665 18.3754 4.42534C18.3754 4.51403 18.35 4.60086 18.3022 4.67553C18.2543 4.7502 18.1861 4.80959 18.1055 4.84665L17.4405 5.1424C16.5702 5.53294 15.8778 6.23535 15.4998 7.11115L15.2836 7.6064C15.25 7.68705 15.1932 7.75594 15.1205 7.80439C15.0478 7.85285 14.9624 7.8787 14.875 7.8787C14.7876 7.8787 14.7022 7.85285 14.6295 7.80439C14.5568 7.75594 14.5 7.68705 14.4664 7.6064L14.2511 7.11203C13.8729 6.23558 13.1797 5.5328 12.3086 5.1424L11.6436 4.84665C11.5631 4.80959 11.4948 4.7502 11.447 4.67553C11.3991 4.60086 11.3737 4.51403 11.3737 4.42534C11.3737 4.33665 11.3991 4.24983 11.447 4.17515C11.4948 4.10048 11.5631 4.04109 11.6436 4.00403L12.2719 3.72403C13.1647 3.32274 13.8697 2.5943 14.2415 1.68878L14.4638 1.15415Z" fill="black"/>
</svg>
