<svg preserveAspectRatio="none" width="100%" height="100%" overflow="visible" style="display: block;" viewBox="0 0 20 20" fill="none" xmlns="http://www.w3.org/2000/svg">
<g id="mdi:timeline-outline" clip-path="url(#clip0_92_9)">
<path id="Vector" d="M3.33333 1.66667V6.66667H1.66667V1.66667H3.33333ZM1.66667 18.3333V13.3333H3.33333V18.3333H1.66667ZM4.16667 10C4.16667 10.925 3.425 11.6667 2.5 11.6667C2.17036 11.6667 1.84813 11.5689 1.57405 11.3858C1.29997 11.2026 1.08635 10.9423 0.960201 10.6378C0.834055 10.3333 0.801049 9.99815 0.865358 9.67485C0.929667 9.35155 1.0884 9.05458 1.32149 8.82149C1.55458 8.5884 1.85155 8.42967 2.17485 8.36536C2.49815 8.30105 2.83326 8.33405 3.13781 8.4602C3.44235 8.58635 3.70265 8.79997 3.88578 9.07405C4.06892 9.34813 4.16667 9.67036 4.16667 10ZM20 5V15C20 15.925 19.2583 16.6667 18.3333 16.6667H8.33333C7.89131 16.6667 7.46738 16.4911 7.15482 16.1785C6.84226 15.866 6.66667 15.442 6.66667 15V11.6667L5 10L6.66667 8.33333V5C6.66667 4.55797 6.84226 4.13405 7.15482 3.82149C7.46738 3.50893 7.89131 3.33333 8.33333 3.33333H18.3333C19.2583 3.33333 20 4.075 20 5ZM8.33333 5V15H18.3333V5H8.33333Z" fill="var(--fill-0, black)"/>
</g>
<defs>
<clipPath id="clip0_92_9">
<rect width="20" height="20" fill="white"/>
</clipPath>
</defs>
</svg>
