<svg width="21" height="21" viewBox="0 0 21 21" fill="none" xmlns="http://www.w3.org/2000/svg">
<path d="M17.7975 8.15499L5.54747 2.02999C5.06403 1.78937 4.51814 1.70371 3.98423 1.78469C3.45032 1.86566 2.95437 2.10933 2.56401 2.48247C2.17365 2.85561 1.90787 3.34006 1.8029 3.86977C1.69794 4.39949 1.7589 4.94869 1.97747 5.44249L4.07747 10.1412C4.12512 10.2548 4.14966 10.3768 4.14966 10.5C4.14966 10.6232 4.12512 10.7451 4.07747 10.8587L1.97747 15.5575C1.79958 15.9571 1.72438 16.3949 1.7587 16.8309C1.79302 17.267 1.93577 17.6876 2.17398 18.0545C2.41219 18.4214 2.73831 18.7229 3.12269 18.9317C3.50708 19.1405 3.93754 19.2499 4.37497 19.25C4.78467 19.2459 5.18828 19.1502 5.55622 18.97L17.8062 12.845C18.2407 12.6264 18.606 12.2914 18.8612 11.8773C19.1164 11.4632 19.2516 10.9864 19.2516 10.5C19.2516 10.0136 19.1164 9.53675 18.8612 9.12267C18.606 8.7086 18.2407 8.37358 17.8062 8.15499H17.7975ZM17.0187 11.2787L4.76872 17.4037C4.60786 17.481 4.42724 17.5072 4.25106 17.4789C4.07488 17.4505 3.91158 17.369 3.78305 17.2452C3.65451 17.1215 3.56689 16.9614 3.53194 16.7864C3.49698 16.6114 3.51636 16.4299 3.58747 16.2662L5.67872 11.5675C5.70579 11.5047 5.72917 11.4405 5.74872 11.375H11.7775C12.0095 11.375 12.2321 11.2828 12.3962 11.1187C12.5603 10.9546 12.6525 10.7321 12.6525 10.5C12.6525 10.2679 12.5603 10.0454 12.3962 9.88127C12.2321 9.71718 12.0095 9.62499 11.7775 9.62499H5.74872C5.72917 9.55951 5.70579 9.49524 5.67872 9.43249L3.58747 4.73374C3.51636 4.57008 3.49698 4.3886 3.53194 4.21361C3.56689 4.03863 3.65451 3.87852 3.78305 3.75474C3.91158 3.63097 4.07488 3.54945 4.25106 3.52112C4.42724 3.49279 4.60786 3.519 4.76872 3.59624L17.0187 9.72124C17.1621 9.79467 17.2823 9.90623 17.3663 10.0436C17.4503 10.181 17.4948 10.339 17.4948 10.5C17.4948 10.661 17.4503 10.8189 17.3663 10.9564C17.2823 11.0938 17.1621 11.2053 17.0187 11.2787Z" fill="black"/>
</svg>
